<svg width="77" height="46" viewBox="0 0 77 46" fill="none" xmlns="http://www.w3.org/2000/svg">
<path opacity="0.9" d="M6.816 0.0079999C8.016 0.0079999 9.056 0.184 9.936 0.535999C10.832 0.871999 11.656 1.392 12.408 2.096L10.728 4.04C10.136 3.56 9.544 3.208 8.952 2.984C8.36 2.76 7.728 2.648 7.056 2.648C6.32 2.648 5.728 2.808 5.28 3.128C4.848 3.432 4.632 3.872 4.632 4.448C4.632 4.848 4.72 5.176 4.896 5.432C5.088 5.688 5.416 5.928 5.88 6.152C6.344 6.376 7.04 6.632 7.968 6.92C9.616 7.448 10.848 8.104 11.664 8.888C12.48 9.656 12.888 10.76 12.888 12.2C12.888 13.224 12.632 14.128 12.12 14.912C11.608 15.68 10.864 16.288 9.888 16.736C8.912 17.168 7.768 17.384 6.456 17.384C5.144 17.384 3.976 17.176 2.952 16.76C1.928 16.344 1.048 15.776 0.312 15.056L2.112 13.064C2.752 13.608 3.416 14.024 4.104 14.312C4.792 14.584 5.544 14.72 6.36 14.72C7.224 14.72 7.912 14.52 8.424 14.12C8.952 13.72 9.216 13.16 9.216 12.44C9.216 11.992 9.12 11.624 8.928 11.336C8.752 11.032 8.44 10.76 7.992 10.52C7.544 10.28 6.896 10.032 6.048 9.776C4.24 9.216 2.944 8.544 2.16 7.76C1.392 6.976 1.008 5.952 1.008 4.688C1.008 3.76 1.256 2.944 1.752 2.24C2.248 1.52 2.936 0.967999 3.816 0.584C4.696 0.2 5.696 0.0079999 6.816 0.0079999ZM22.1143 3.896C23.7143 3.896 24.8983 4.488 25.6663 5.672C26.4503 6.84 26.8423 8.488 26.8423 10.616C26.8423 11.912 26.6423 13.072 26.2423 14.096C25.8423 15.12 25.2583 15.928 24.4903 16.52C23.7383 17.096 22.8423 17.384 21.8023 17.384C20.5063 17.384 19.4583 16.928 18.6583 16.016V21.896L15.2503 22.28V4.28H18.2503L18.4183 5.768C18.8983 5.144 19.4583 4.68 20.0983 4.376C20.7543 4.056 21.4263 3.896 22.1143 3.896ZM20.7943 14.84C22.4583 14.84 23.2903 13.44 23.2903 10.64C23.2903 9.104 23.1063 8.016 22.7383 7.376C22.3703 6.736 21.8103 6.416 21.0583 6.416C20.5783 6.416 20.1303 6.568 19.7143 6.872C19.3143 7.16 18.9623 7.552 18.6583 8.048V13.592C19.2023 14.424 19.9143 14.84 20.7943 14.84ZM34.8992 3.896C36.8032 3.896 38.2912 4.496 39.3632 5.696C40.4352 6.88 40.9712 8.528 40.9712 10.64C40.9712 11.984 40.7232 13.168 40.2272 14.192C39.7472 15.2 39.0432 15.984 38.1152 16.544C37.2032 17.104 36.1232 17.384 34.8752 17.384C32.9712 17.384 31.4752 16.792 30.3872 15.608C29.3152 14.408 28.7792 12.752 28.7792 10.64C28.7792 9.296 29.0192 8.12 29.4992 7.112C29.9952 6.088 30.6992 5.296 31.6112 4.736C32.5392 4.176 33.6352 3.896 34.8992 3.896ZM34.8992 6.44C34.0352 6.44 33.3872 6.784 32.9552 7.472C32.5392 8.144 32.3312 9.2 32.3312 10.64C32.3312 12.08 32.5392 13.144 32.9552 13.832C33.3872 14.504 34.0272 14.84 34.8752 14.84C35.7232 14.84 36.3552 14.504 36.7712 13.832C37.2032 13.144 37.4192 12.08 37.4192 10.64C37.4192 9.2 37.2112 8.144 36.7952 7.472C36.3792 6.784 35.7472 6.44 34.8992 6.44ZM50.1388 3.92C50.5228 3.92 50.9468 3.984 51.4108 4.112L50.8348 7.4C50.3868 7.288 50.0108 7.232 49.7068 7.232C48.9548 7.232 48.3708 7.496 47.9548 8.024C47.5388 8.552 47.2108 9.352 46.9708 10.424V17H43.5628V4.28H46.5148L46.8268 6.752C47.1308 5.856 47.5708 5.16 48.1468 4.664C48.7388 4.168 49.4028 3.92 50.1388 3.92ZM60.7099 16.4C60.2459 16.72 59.7179 16.96 59.1259 17.12C58.5499 17.296 57.9739 17.384 57.3979 17.384C56.0859 17.368 55.0939 16.992 54.4219 16.256C53.7499 15.52 53.4139 14.44 53.4139 13.016V6.68H51.5179V4.28H53.4139V1.496L56.8219 1.088V4.28H59.7499L59.4139 6.68H56.8219V12.944C56.8219 13.552 56.9259 13.992 57.1339 14.264C57.3419 14.536 57.6619 14.672 58.0939 14.672C58.5259 14.672 59.0059 14.528 59.5339 14.24L60.7099 16.4ZM17.856 45H14.4L14.04 38.256C13.928 36.24 13.872 34.528 13.872 33.12C13.872 32.368 13.88 31.824 13.896 31.488L11.088 43.224H7.752L4.752 31.464C4.816 32.44 4.848 33.536 4.848 34.752C4.848 36.048 4.816 37.24 4.752 38.328L4.392 45H0.96L2.256 28.392H6.744L9.48 39.84L12.048 28.392H16.584L17.856 45ZM30.2203 41.472C30.2203 41.968 30.2923 42.336 30.4363 42.576C30.5803 42.8 30.8203 42.968 31.1563 43.08L30.4363 45.336C29.6843 45.272 29.0683 45.096 28.5883 44.808C28.1243 44.52 27.7643 44.072 27.5083 43.464C26.6763 44.744 25.4043 45.384 23.6923 45.384C22.4283 45.384 21.4203 45.024 20.6683 44.304C19.9323 43.568 19.5643 42.616 19.5643 41.448C19.5643 40.056 20.0683 38.992 21.0763 38.256C22.0843 37.52 23.5323 37.152 25.4203 37.152H26.8843V36.528C26.8843 35.744 26.7083 35.2 26.3563 34.896C26.0043 34.592 25.4203 34.44 24.6043 34.44C23.7083 34.44 22.5883 34.664 21.2443 35.112L20.4763 32.832C22.0603 32.208 23.6283 31.896 25.1803 31.896C26.9083 31.896 28.1803 32.272 28.9963 33.024C29.8123 33.76 30.2203 34.864 30.2203 36.336V41.472ZM24.6283 42.936C25.5883 42.936 26.3403 42.464 26.8843 41.52V39.096H25.7563C23.9163 39.096 22.9963 39.784 22.9963 41.16C22.9963 41.72 23.1323 42.16 23.4043 42.48C23.6923 42.784 24.1003 42.936 24.6283 42.936ZM40.2013 31.92C40.5853 31.92 41.0093 31.984 41.4733 32.112L40.8973 35.4C40.4493 35.288 40.0733 35.232 39.7693 35.232C39.0173 35.232 38.4333 35.496 38.0173 36.024C37.6013 36.552 37.2733 37.352 37.0333 38.424V45H33.6253V32.28H36.5773L36.8893 34.752C37.1933 33.856 37.6333 33.16 38.2093 32.664C38.8013 32.168 39.4653 31.92 40.2013 31.92ZM46.5724 26.832V45H43.1644V27.216L46.5724 26.832ZM54.3004 32.28L50.2444 37.872L54.6604 45H50.7964L46.6924 38.04L50.7724 32.28H54.3004ZM66.6429 38.352C66.6429 38.512 66.6189 38.952 66.5709 39.672H58.6269C58.7389 40.824 59.0509 41.64 59.5629 42.12C60.0749 42.6 60.7709 42.84 61.6509 42.84C62.1949 42.84 62.7069 42.752 63.1869 42.576C63.6669 42.4 64.1869 42.12 64.7469 41.736L66.1629 43.656C64.7389 44.808 63.1309 45.384 61.3389 45.384C59.3389 45.384 57.8029 44.784 56.7309 43.584C55.6589 42.384 55.1229 40.76 55.1229 38.712C55.1229 37.416 55.3469 36.256 55.7949 35.232C56.2589 34.192 56.9229 33.376 57.7869 32.784C58.6669 32.192 59.7069 31.896 60.9069 31.896C62.7149 31.896 64.1229 32.464 65.1309 33.6C66.1389 34.736 66.6429 36.32 66.6429 38.352ZM63.2589 37.392C63.2589 35.28 62.4989 34.224 60.9789 34.224C60.2749 34.224 59.7229 34.488 59.3229 35.016C58.9389 35.528 58.7069 36.368 58.6269 37.536H63.2589V37.392ZM76.7177 44.4C76.2537 44.72 75.7257 44.96 75.1337 45.12C74.5577 45.296 73.9817 45.384 73.4057 45.384C72.0937 45.368 71.1017 44.992 70.4297 44.256C69.7577 43.52 69.4217 42.44 69.4217 41.016V34.68H67.5257V32.28H69.4217V29.496L72.8297 29.088V32.28H75.7577L75.4217 34.68H72.8297V40.944C72.8297 41.552 72.9337 41.992 73.1417 42.264C73.3497 42.536 73.6697 42.672 74.1017 42.672C74.5337 42.672 75.0137 42.528 75.5417 42.24L76.7177 44.4Z" fill="white"/>
</svg>
